<mxfile host="65bd71144e">
    <diagram name="PÃ¡gina-1" id="O321bfyyZBPheD9Pxt3D">
        <mxGraphModel dx="1883" dy="2722" grid="1" gridSize="10" guides="1" tooltips="1" connect="1" arrows="1" fold="1" page="1" pageScale="1" pageWidth="827" pageHeight="1169" math="0" shadow="0">
            <root>
                <mxCell id="0"/>
                <mxCell id="1" parent="0"/>
                <mxCell id="2D3jCIZ7aBYVxYr3jZvB-2" value="Body" style="rounded=0;whiteSpace=wrap;html=1;fillColor=#0050ef;fontColor=#ffffff;strokeColor=#001DBC;" parent="1" vertex="1">
                    <mxGeometry y="-970" width="820" height="729" as="geometry"/>
                </mxCell>
                <mxCell id="2D3jCIZ7aBYVxYr3jZvB-3" value="Head" style="rounded=0;whiteSpace=wrap;html=1;fillColor=#a20025;fontColor=#ffffff;strokeColor=#6F0000;" parent="1" vertex="1">
                    <mxGeometry y="-970" width="820" height="150" as="geometry"/>
                </mxCell>
                <mxCell id="2D3jCIZ7aBYVxYr3jZvB-5" value="Footer" style="rounded=0;whiteSpace=wrap;html=1;" parent="1" vertex="1">
                    <mxGeometry y="-241" width="820" height="60" as="geometry"/>
                </mxCell>
                <mxCell id="3" value="" style="rounded=0;whiteSpace=wrap;html=1;" parent="1" vertex="1">
                    <mxGeometry x="246" y="-882.25" width="560" height="40" as="geometry"/>
                </mxCell>
                <mxCell id="4" value="Home" style="rounded=1;whiteSpace=wrap;html=1;" parent="1" vertex="1">
                    <mxGeometry x="256" y="-877.25" width="90" height="30" as="geometry"/>
                </mxCell>
                <mxCell id="6" value="Abolt" style="rounded=1;whiteSpace=wrap;html=1;" parent="1" vertex="1">
                    <mxGeometry x="346" y="-877.25" width="90" height="30" as="geometry"/>
                </mxCell>
                <mxCell id="7" value="Education" style="rounded=1;whiteSpace=wrap;html=1;" parent="1" vertex="1">
                    <mxGeometry x="436" y="-877.25" width="90" height="30" as="geometry"/>
                </mxCell>
                <mxCell id="8" value="Projects" style="rounded=1;whiteSpace=wrap;html=1;" parent="1" vertex="1">
                    <mxGeometry x="526" y="-877.25" width="90" height="30" as="geometry"/>
                </mxCell>
                <mxCell id="9" value="Skils" style="rounded=1;whiteSpace=wrap;html=1;" parent="1" vertex="1">
                    <mxGeometry x="616" y="-877.25" width="90" height="30" as="geometry"/>
                </mxCell>
                <mxCell id="10" value="Resume" style="rounded=1;whiteSpace=wrap;html=1;" parent="1" vertex="1">
                    <mxGeometry x="706" y="-877.25" width="90" height="30" as="geometry"/>
                </mxCell>
                <mxCell id="11" value="&lt;p style=&quot;line-height: 100%; font-size: 24px;&quot;&gt;Pablo Barcellos&lt;/p&gt;" style="rounded=1;whiteSpace=wrap;html=1;" parent="1" vertex="1">
                    <mxGeometry x="45" y="-941" width="180" height="57.5" as="geometry"/>
                </mxCell>
                <mxCell id="13" value="&lt;p style=&quot;line-height: 100%; font-size: 24px;&quot;&gt;I'm &quot;reative&quot;&lt;/p&gt;" style="rounded=1;whiteSpace=wrap;html=1;" parent="1" vertex="1">
                    <mxGeometry x="45" y="-891" width="180" height="57.5" as="geometry"/>
                </mxCell>
                <mxCell id="14" value="Img" style="rounded=0;whiteSpace=wrap;html=1;" parent="1" vertex="1">
                    <mxGeometry x="46" y="-741" width="179" height="215.5" as="geometry"/>
                </mxCell>
                <mxCell id="16" value="Text" style="rounded=0;whiteSpace=wrap;html=1;" parent="1" vertex="1">
                    <mxGeometry x="386" y="-752.12" width="340" height="240" as="geometry"/>
                </mxCell>
                <mxCell id="17" value="&lt;h2 style=&quot;box-sizing: border-box; margin: 0px 0px 20px; font-weight: 500; line-height: 1px; font-size: 14px; font-family: Poppins, sans-serif; padding: 0px; letter-spacing: 2px; text-transform: uppercase; color: rgb(222, 226, 230); text-align: left;&quot;&gt;INTEREsses&lt;/h2&gt;" style="rounded=0;whiteSpace=wrap;html=1;" parent="1" vertex="1">
                    <mxGeometry x="45" y="-441" width="711" height="170" as="geometry"/>
                </mxCell>
                <mxCell id="18" value="" style="rounded=1;whiteSpace=wrap;html=1;" parent="1" vertex="1">
                    <mxGeometry x="86" y="-753.24" width="210" height="242.25" as="geometry"/>
                </mxCell>
                <mxCell id="19" value="Body" style="rounded=0;whiteSpace=wrap;html=1;fillColor=#0050ef;fontColor=#ffffff;strokeColor=#001DBC;" vertex="1" parent="1">
                    <mxGeometry x="834" y="-970" width="820" height="729" as="geometry"/>
                </mxCell>
                <mxCell id="20" value="Head" style="rounded=0;whiteSpace=wrap;html=1;fillColor=#a20025;fontColor=#ffffff;strokeColor=#6F0000;" vertex="1" parent="1">
                    <mxGeometry x="834" y="-970" width="200" height="730" as="geometry"/>
                </mxCell>
                <mxCell id="21" value="Footer" style="rounded=0;whiteSpace=wrap;html=1;" vertex="1" parent="1">
                    <mxGeometry x="834" y="-241" width="820" height="60" as="geometry"/>
                </mxCell>
                <mxCell id="22" value="" style="rounded=0;whiteSpace=wrap;html=1;" vertex="1" parent="1">
                    <mxGeometry x="904" y="-780" width="74" height="442.25" as="geometry"/>
                </mxCell>
                <mxCell id="23" value="Home" style="rounded=1;whiteSpace=wrap;html=1;" vertex="1" parent="1">
                    <mxGeometry x="896" y="-771" width="90" height="30" as="geometry"/>
                </mxCell>
                <mxCell id="24" value="Abolt" style="rounded=1;whiteSpace=wrap;html=1;" vertex="1" parent="1">
                    <mxGeometry x="896" y="-720" width="90" height="30" as="geometry"/>
                </mxCell>
                <mxCell id="25" value="Education" style="rounded=1;whiteSpace=wrap;html=1;" vertex="1" parent="1">
                    <mxGeometry x="896" y="-670" width="90" height="30" as="geometry"/>
                </mxCell>
                <mxCell id="26" value="Projects" style="rounded=1;whiteSpace=wrap;html=1;" vertex="1" parent="1">
                    <mxGeometry x="896" y="-599" width="90" height="30" as="geometry"/>
                </mxCell>
                <mxCell id="27" value="Skils" style="rounded=1;whiteSpace=wrap;html=1;" vertex="1" parent="1">
                    <mxGeometry x="896" y="-542.12" width="90" height="30" as="geometry"/>
                </mxCell>
                <mxCell id="28" value="Resume" style="rounded=1;whiteSpace=wrap;html=1;" vertex="1" parent="1">
                    <mxGeometry x="896" y="-460" width="90" height="30" as="geometry"/>
                </mxCell>
                <mxCell id="29" value="&lt;p style=&quot;line-height: 100%; font-size: 24px;&quot;&gt;Pablo Barcellos&lt;/p&gt;" style="rounded=1;whiteSpace=wrap;html=1;" vertex="1" parent="1">
                    <mxGeometry x="834" y="-941" width="180" height="57.5" as="geometry"/>
                </mxCell>
                <mxCell id="30" value="&lt;p style=&quot;line-height: 100%; font-size: 24px;&quot;&gt;I'm &quot;reative&quot;&lt;/p&gt;" style="rounded=1;whiteSpace=wrap;html=1;" vertex="1" parent="1">
                    <mxGeometry x="834" y="-882.25" width="180" height="57.5" as="geometry"/>
                </mxCell>
                <mxCell id="31" value="Img" style="rounded=0;whiteSpace=wrap;html=1;" vertex="1" parent="1">
                    <mxGeometry x="1060" y="-870" width="179" height="215.5" as="geometry"/>
                </mxCell>
                <mxCell id="32" value="Text" style="rounded=0;whiteSpace=wrap;html=1;" vertex="1" parent="1">
                    <mxGeometry x="1324" y="-932.25" width="290" height="382.25" as="geometry"/>
                </mxCell>
                <mxCell id="33" value="&lt;h2 style=&quot;box-sizing: border-box; margin: 0px 0px 20px; font-weight: 500; line-height: 1px; font-size: 14px; font-family: Poppins, sans-serif; padding: 0px; letter-spacing: 2px; text-transform: uppercase; color: rgb(222, 226, 230); text-align: left;&quot;&gt;INTEREsses&lt;/h2&gt;" style="rounded=0;whiteSpace=wrap;html=1;" vertex="1" parent="1">
                    <mxGeometry x="1064" y="-481" width="550" height="210" as="geometry"/>
                </mxCell>
                <mxCell id="34" value="" style="rounded=1;whiteSpace=wrap;html=1;" vertex="1" parent="1">
                    <mxGeometry x="1080" y="-827" width="210" height="242.25" as="geometry"/>
                </mxCell>
            </root>
        </mxGraphModel>
    </diagram>
</mxfile>